<svg xmlns="http://www.w3.org/2000/svg" xmlns:xlink="http://www.w3.org/1999/xlink" viewBox="0 0 1000 1000"><defs><style>.a{fill:none;}.b{clip-path:url(#a);}.c{clip-path:url(#b);}.d{fill:#338b9e;}</style><clipPath id="a"><rect class="a" x="145" y="100" width="710.32" height="800"/></clipPath><clipPath id="b"><rect class="a" x="145" y="100" width="710.32" height="800"/></clipPath></defs><title>Hydra Logo</title><g class="b"><g class="c"><path class="d" d="M185.46,471.35c.46,0,4.07.11,10.26.11,12.11,0,36.65-.39,67.63-2.9-25.9-38.8-43-85.35-43-140.75V126.54L145,100V327.81a314.93,314.93,0,0,0,34,143.32Z"/><path class="d" d="M297.47,846.33l75.34-26.51V627.93c-26.48,4.8-51.9,8.2-75.34,10.55Z"/><path class="d" d="M692.09,286.55v-128L616.75,183.7V286.55c0,51.48-17.45,93.42-53.37,128.17-4.59,4.45-9.6,8.73-14.81,12.94,24.24,10,51.85,18.48,82.31,25.28,40.59-46.15,61.21-102,61.21-166.39"/><path class="d" d="M333.17,509.09a922.81,922.81,0,0,1-137.44,10.8c-7.43,0-11.61-.12-11.77-.14l-39-1.32V900l75.35-26.51V595c47.28-1.29,130.72-7.22,214.4-30.78q-46.92-25.41-81.66-58.46-9.82,1.8-19.92,3.38"/><path class="d" d="M616.75,816.3l75.34,25.11V677.81c-21.2,13.12-47.77,26.28-75.34,38.47Z"/><path class="d" d="M780,607v263.7l75.34,25.11V518.42l-4.86.16Q822.5,565.07,780,607"/><path class="d" d="M465.59,525.58l.18,0,0,0a520.58,520.58,0,0,0,84,33.86,489,489,0,0,0,60.54-34.42q15.19-10.25,28.49-21c-45.11-8.78-85.08-20.89-119.11-36l-27.33-13.55c-21.57-11.81-40.12-25.07-55.24-39.69-36-34.76-53.47-76.72-53.47-128.25V184l-75.34-26.51V286.55c0,72,25.71,133.41,76.45,182.43,23.52,22.72,51.2,41.28,80.9,56.6"/><path class="d" d="M854.92,104.32l-75.29,25.11L780,327.81c0,227.91-289.14,306.74-292,307.48l-39.84,10.93v80.69c49.16-14.39,179.41-61.84,230.33-98.08,113.31-80.69,176.85-181.31,176.85-301Z"/></g></g></svg>
