<?xml version="1.0" encoding="UTF-8" standalone="no"?>
<!DOCTYPE svg PUBLIC "-//W3C//DTD SVG 1.1//EN" "http://www.w3.org/Graphics/SVG/1.1/DTD/svg11.dtd">
<svg width="43px" height="39px" viewBox="0 0 43 39" version="1.1" xmlns="http://www.w3.org/2000/svg" xmlns:xlink="http://www.w3.org/1999/xlink" xml:space="preserve" xmlns:serif="http://www.serif.com/" style="fill-rule:evenodd;clip-rule:evenodd;stroke-linejoin:round;stroke-miterlimit:2;">
    <g>
        <g transform="matrix(0.02,0,0,0.02,11.497,9.5)">
            <path d="M185.46,471.35C185.92,471.35 189.53,471.46 195.72,471.46C207.83,471.46 232.37,471.07 263.35,468.56C237.45,429.76 220.35,383.21 220.35,327.81L220.35,126.54L145,100L145,327.81C144.845,377.597 156.498,426.718 179,471.13L185.46,471.35Z" style="fill:rgb(51,139,158);fill-rule:nonzero;"/>
            <path d="M297.47,846.33L372.81,819.82L372.81,627.93C346.33,632.73 320.91,636.13 297.47,638.48L297.47,846.33Z" style="fill:rgb(51,139,158);fill-rule:nonzero;"/>
            <path d="M692.09,286.55L692.09,158.55L616.75,183.7L616.75,286.55C616.75,338.03 599.3,379.97 563.38,414.72C558.79,419.17 553.78,423.45 548.57,427.66C572.81,437.66 600.42,446.14 630.88,452.94C671.47,406.79 692.09,350.94 692.09,286.55" style="fill:rgb(51,139,158);fill-rule:nonzero;"/>
            <path d="M333.17,509.09C287.69,516.112 241.749,519.722 195.73,519.89C188.3,519.89 184.12,519.77 183.96,519.75L144.96,518.43L144.96,900L220.31,873.49L220.31,595C267.59,593.71 351.03,587.78 434.71,564.22C403.43,547.28 376.21,527.793 353.05,505.76C346.503,506.96 339.863,508.087 333.13,509.14" style="fill:rgb(51,139,158);fill-rule:nonzero;"/>
            <path d="M616.75,816.3L692.09,841.41L692.09,677.81C670.89,690.93 644.32,704.09 616.75,716.28L616.75,816.3Z" style="fill:rgb(51,139,158);fill-rule:nonzero;"/>
            <path d="M780,607L780,870.7L855.34,895.81L855.34,518.42L850.48,518.58C831.827,549.573 808.333,579.047 780,607" style="fill:rgb(51,139,158);fill-rule:nonzero;"/>
            <path d="M465.59,525.58L465.77,525.58C492.733,539.285 520.84,550.615 549.77,559.44C570.742,549.42 590.974,537.918 610.31,525.02C620.437,518.187 629.933,511.187 638.8,504.02C593.69,495.24 553.72,483.13 519.69,468.02L492.36,454.47C470.79,442.66 452.24,429.4 437.12,414.78C401.12,380.02 383.65,338.06 383.65,286.53L383.65,184L308.31,157.49L308.31,286.55C308.31,358.55 334.02,419.96 384.76,468.98C408.28,491.7 435.96,510.26 465.66,525.58" style="fill:rgb(51,139,158);fill-rule:nonzero;"/>
            <path d="M854.92,104.32L779.63,129.43L780,327.81C780,555.72 490.86,634.55 488,635.29L448.16,646.22L448.16,726.91C497.32,712.52 627.57,665.07 678.49,628.83C791.8,548.14 855.34,447.52 855.34,327.83L854.92,104.32Z" style="fill:rgb(51,139,158);fill-rule:nonzero;"/>
        </g>
        <path id="Forma_1" d="M42.1,9.2C41.3,8.9 40.4,9.2 40.1,10L39.3,12C36.4,4.8 29.3,0 21.3,0C12.2,0 4.4,6.1 2.4,14.9C2.2,15.7 2.7,16.5 3.5,16.7C4.3,16.9 5.1,16.4 5.3,15.6C7,8.2 13.5,3 21.3,3C28.1,3 33.9,7 36.4,12.9L34.7,12.2C33.9,11.9 33,12.2 32.7,13C32.4,13.8 32.7,14.7 33.5,15L38.7,17.2C38.9,17.3 39.1,17.3 39.3,17.3C39.5,17.3 39.7,17.3 39.9,17.2C40.3,17.1 40.5,16.8 40.7,16.4L42.9,11.3C43.2,10.4 42.9,9.5 42.1,9.2ZM39.4,22.3C38.6,22.1 37.8,22.6 37.6,23.4C35.9,30.8 29.3,36.1 21.6,36.1C14.8,36.1 9,32.1 6.5,26.1L8.3,26.9C9.1,27.2 10,26.9 10.3,26.1C10.6,25.3 10.3,24.4 9.5,24.1L4.3,21.9C3.5,21.6 2.6,21.9 2.3,22.7L0.1,27.8C-0.2,28.6 0.1,29.5 0.9,29.8C1.1,29.9 1.3,29.9 1.5,29.9C2.1,29.9 2.7,29.5 2.9,28.9L3.7,27.1C6.6,34.3 13.6,39 21.6,39C30.8,39 38.5,32.9 40.5,24.1C40.7,23.3 40.2,22.5 39.4,22.3Z" style="fill:rgb(51,139,158);fill-opacity:0.4;"/>
    </g>
</svg>
